<?xml version="1.0" standalone="no"?>
<!DOCTYPE svg PUBLIC "-//W3C//DTD SVG 20010904//EN"
 "http://www.w3.org/TR/2001/REC-SVG-20010904/DTD/svg10.dtd">
<svg version="1.0" xmlns="http://www.w3.org/2000/svg"
 width="1280.000000pt" height="1280.000000pt" viewBox="0 0 1280.000000 1280.000000"
 preserveAspectRatio="xMidYMid meet">

<g transform="translate(0.000000,1280.000000) scale(0.100000,-0.100000)"
fill="#000000" stroke="none">
<path d="M11779 9376 c-3 -3 -33 -9 -67 -15 -35 -6 -88 -22 -119 -36 -30 -14
-68 -25 -83 -25 -16 0 -41 -10 -57 -23 -41 -34 -62 -39 -86 -22 -12 9 -39 20
-60 26 -31 8 -39 16 -44 40 -5 29 -6 29 -25 12 -43 -38 -60 -125 -36 -177 12
-28 58 -64 58 -46 0 13 30 45 41 45 4 0 11 3 15 8 4 4 30 7 58 6 59 -1 156
-16 115 -18 -14 0 -34 -10 -43 -20 -10 -11 -25 -17 -34 -15 -13 4 -13 2 2 -10
18 -15 21 -14 42 5 13 12 24 16 28 11 8 -14 -42 -52 -68 -52 -12 0 -32 7 -44
16 -21 14 -22 14 -22 -8 l-1 -23 -19 23 c-17 20 -19 21 -24 4 -3 -9 -1 -33 4
-52 13 -46 13 -53 -4 -47 -14 6 -94 -14 -93 -23 0 -3 -5 -16 -12 -29 -7 -13
-9 -22 -4 -19 42 19 64 28 104 40 42 13 48 13 69 -4 l22 -18 -23 -1 c-13 -1
-29 -1 -36 0 -6 1 -62 -21 -123 -49 -62 -27 -115 -50 -118 -50 -4 0 8 13 26
29 37 34 41 51 12 51 -11 0 -20 5 -20 11 0 10 -13 8 -60 -9 -11 -4 -11 0 3 15
20 23 10 38 -13 22 -8 -5 -19 -9 -24 -9 -14 0 31 45 76 76 21 15 37 29 35 31
-5 4 -92 -43 -132 -72 -52 -38 -61 -39 -30 -5 l30 33 -30 -19 c-87 -53 -196
-173 -284 -309 -28 -44 -58 -89 -66 -100 -8 -10 -15 -28 -15 -40 0 -11 -4 -26
-9 -34 -17 -27 -23 26 -6 59 26 50 9 34 -23 -22 -45 -79 -62 -150 -69 -280 -5
-107 -8 -117 -27 -122 -12 -3 -2130 -6 -4707 -6 -2948 0 -4705 -4 -4735 -10
-241 -47 -439 -234 -498 -471 -23 -94 -23 -534 0 -628 53 -212 213 -384 424
-455 101 -34 200 -36 1105 -30 l890 7 47 -47 c53 -52 55 -57 32 -80 -18 -19
-20 -19 -45 -6 -17 10 -19 7 -19 -19 0 -48 39 -140 78 -183 35 -39 91 -73 142
-88 26 -7 27 -5 43 59 9 36 19 75 22 87 5 16 -6 34 -45 77 -36 40 -51 63 -48
79 6 42 39 33 97 -26 l54 -55 43 38 c43 38 146 94 195 106 30 7 62 -17 53 -40
-3 -8 -43 -32 -87 -54 -150 -73 -217 -156 -217 -271 0 -97 65 -203 159 -258
80 -47 200 -34 256 28 16 18 21 39 23 111 l4 89 64 0 64 0 0 -37 c0 -27 -7
-45 -25 -62 -56 -53 -17 -151 60 -151 42 0 95 44 95 80 0 28 -25 76 -44 83
-11 4 -16 26 -18 79 l-3 73 -130 3 c-151 3 -198 -7 -254 -54 -43 -37 -62 -42
-81 -19 -17 21 1 56 48 92 43 32 89 49 164 58 l58 7 0 39 0 39 111 0 110 0 72
-60 c66 -56 71 -63 72 -102 3 -118 174 -116 175 3 0 51 -39 89 -92 89 -34 0
-50 9 -122 70 l-83 70 -122 0 -121 0 0 70 0 70 145 0 144 0 98 -60 c79 -49
105 -60 141 -60 34 0 48 -5 66 -27 34 -39 98 -39 132 0 27 32 30 66 9 106 -16
33 -33 41 -81 41 -24 0 -42 -8 -58 -25 -38 -41 -80 -34 -188 31 l-92 56 -157
-1 -158 0 -3 27 c-3 25 -7 28 -58 33 -77 9 -98 19 -171 84 -78 69 -112 85
-184 85 -49 0 -56 -3 -65 -24 -12 -32 -89 -105 -118 -113 -22 -5 -52 11 -52
29 0 5 21 28 46 51 80 72 88 125 27 189 -30 32 -25 68 12 68 26 0 81 -57 91
-94 5 -21 13 -24 74 -29 84 -7 136 -32 214 -104 32 -30 70 -59 83 -64 13 -5
179 -9 368 -9 326 0 345 -1 354 -19 14 -25 65 -45 97 -37 14 4 36 18 48 31 23
25 24 25 225 25 l201 0 0 -68 c0 -59 3 -72 23 -90 l23 -22 1107 0 c979 0 1112
-2 1145 -16 47 -19 88 -58 115 -109 l22 -40 0 -861 0 -861 -30 -49 c-19 -30
-49 -60 -79 -79 l-49 -30 -2366 -3 c-2305 -3 -2441 -1 -2441 26 0 4 9 31 20
60 42 110 120 457 120 531 0 14 -18 -23 -39 -84 -102 -290 -214 -525 -358
-752 -62 -99 -66 -103 -115 -118 -62 -18 -169 -38 -175 -32 -2 3 31 24 74 47
135 74 229 155 267 229 26 50 46 151 45 236 l0 80 -27 -55 c-25 -51 -149 -196
-159 -186 -3 2 7 24 20 48 45 76 76 188 83 294 6 95 5 101 -23 165 -17 37 -35
69 -40 72 -5 3 -15 -17 -22 -46 -13 -58 -78 -197 -92 -197 -11 0 -11 2 6 80
30 136 9 306 -42 348 -61 50 -60 50 -66 -51 -2 -51 -10 -105 -17 -122 -13 -29
-13 -27 -26 55 -23 156 -47 213 -100 235 -49 20 -248 59 -267 52 -10 -4 -13
-13 -10 -27 6 -24 -17 -24 -29 0 -5 10 -7 4 -7 -15 2 -76 -1 -106 -12 -99 -17
10 -28 -17 -18 -44 10 -27 3 -62 -12 -62 -14 0 -11 -48 4 -53 9 -3 9 -7 -1
-20 -14 -16 -24 -50 -41 -137 -5 -25 -6 -75 -2 -111 6 -57 4 -72 -16 -110 -25
-50 -27 -59 -12 -59 5 0 8 4 5 8 -3 5 4 16 14 25 11 9 22 12 25 7 3 -5 -3 -13
-12 -19 -15 -9 -14 -10 10 -9 18 2 26 7 22 15 -3 10 0 11 15 3 10 -5 50 -10
89 -10 64 0 72 -2 87 -25 27 -41 11 -81 -66 -171 -38 -45 -66 -85 -62 -89 4
-3 0 -5 -8 -3 -8 1 -15 -4 -15 -12 -1 -17 -24 -60 -25 -45 0 6 6 17 13 25 10
12 9 12 -5 1 -19 -14 -24 -36 -10 -44 4 -2 1 -2 -7 0 -15 4 -51 -33 -51 -54 0
-7 -4 -12 -9 -11 -5 2 -9 -1 -9 -7 0 -5 5 -8 12 -7 31 10 49 11 40 3 -5 -5
-18 -11 -28 -13 -28 -5 -29 -21 -5 -46 15 -17 18 -26 10 -36 -11 -13 -3 -85
14 -128 4 -9 8 -41 9 -70 1 -51 3 -53 28 -50 14 2 29 -1 32 -6 5 -9 64 -2 251
29 97 16 215 54 259 84 58 40 30 3 -86 -112 -112 -111 -224 -201 -300 -239
-26 -13 -48 -27 -48 -30 0 -3 4 -3 8 0 4 2 14 0 22 -6 12 -8 12 -9 -2 -4 -10
3 -18 1 -18 -5 0 -5 -10 -1 -21 10 -17 16 -26 18 -44 9 -16 -7 -21 -16 -17
-27 5 -14 4 -14 -14 -1 -17 14 -18 14 -6 -2 8 -10 20 -14 30 -11 9 3 14 2 9
-2 -4 -5 0 -19 9 -33 9 -13 11 -22 6 -18 -6 3 -13 -3 -17 -14 -4 -11 -11 -17
-17 -14 -7 4 -8 2 -4 -4 5 -9 13 -9 27 -1 23 12 41 3 20 -11 -11 -6 -10 -9 5
-12 27 -6 75 12 67 25 -3 5 -1 7 4 4 14 -9 108 42 208 111 100 69 302 272 375
375 l54 77 2521 0 c2517 0 2520 0 2595 21 218 60 379 215 452 434 l23 70 0
910 c0 858 -1 913 -19 970 -57 187 -172 323 -341 405 -146 71 -121 70 -1347
70 l-1089 0 -24 -25 c-22 -21 -25 -33 -25 -90 l0 -65 -199 0 -199 0 -30 30
c-42 42 -93 42 -132 0 l-28 -30 -301 0 -301 0 0 65 0 65 153 0 153 0 100 60
c115 70 151 76 188 33 34 -39 98 -39 132 0 27 32 30 66 9 106 -25 50 -99 58
-141 16 -18 -18 -36 -25 -64 -25 -30 0 -62 -14 -138 -60 l-100 -60 -146 0
-146 0 0 65 0 65 111 0 c61 0 118 4 128 9 10 6 52 39 95 74 67 56 82 64 118
64 33 0 47 6 65 27 64 75 -18 187 -105 142 -32 -17 -57 -65 -49 -96 4 -15 -12
-34 -73 -85 l-78 -65 -106 0 -106 0 0 43 0 43 -76 11 c-118 17 -221 92 -195
142 16 29 41 26 75 -9 47 -50 88 -62 227 -68 157 -5 169 -1 169 69 0 35 4 51
15 56 19 7 45 55 45 82 0 11 -12 33 -26 50 -54 65 -154 28 -154 -57 0 -28 7
-45 25 -62 14 -13 25 -34 25 -47 0 -22 -4 -23 -63 -23 l-63 0 -12 60 c-19 106
-73 153 -172 154 -35 1 -69 -6 -93 -18 -134 -66 -236 -248 -194 -347 23 -56
64 -87 141 -111 81 -24 96 -33 96 -59 0 -66 -209 -1 -275 85 -14 18 -31 56
-38 85 -6 28 -17 51 -24 51 -23 0 -94 -73 -121 -124 -23 -44 -27 -63 -27 -143
l0 -93 -961 0 -960 0 -51 25 c-51 26 -91 72 -112 128 -7 17 -11 114 -11 235 0
179 3 212 19 247 23 51 89 111 138 125 27 8 1371 11 4761 13 l4723 2 10 -40
c6 -22 13 -43 16 -47 2 -5 1 -8 -2 -8 -3 0 -12 15 -20 33 -13 30 -14 30 -15 7
0 -14 12 -43 28 -66 35 -52 155 -185 146 -161 -3 9 -4 17 -1 17 7 0 39 -51 41
-66 1 -8 17 -30 36 -49 32 -33 31 -50 0 -22 -8 6 -2 -2 14 -20 34 -38 257
-155 371 -194 54 -19 71 -28 52 -29 -15 0 -44 7 -65 16 -101 43 -109 41 -24
-8 56 -33 59 -33 187 -34 215 -2 254 -5 225 -15 -17 -6 5 -7 65 -5 66 2 101 9
130 24 23 11 67 28 100 37 33 10 67 20 75 22 8 2 4 -3 -10 -11 l-25 -16 30 6
c60 14 118 45 184 99 36 31 89 67 117 80 55 26 155 126 214 213 19 29 42 52
52 52 11 0 15 6 11 20 -3 12 0 20 6 20 7 0 9 5 6 10 -4 6 -1 9 6 8 17 -4 65
96 80 167 6 33 21 78 32 100 28 56 33 182 13 330 -9 66 -18 143 -21 171 -7 81
-73 251 -128 328 -11 15 -21 39 -23 52 -1 12 -27 54 -58 92 -55 68 -68 90 -43
76 6 -4 3 2 -7 14 -23 26 -34 29 -15 5 11 -15 10 -14 -9 1 -23 20 -30 32 -12
21 6 -3 10 -2 10 4 0 20 -109 103 -183 139 -43 20 -73 38 -67 40 6 2 49 -17
96 -43 100 -54 102 -42 2 22 -58 37 -83 47 -155 59 -47 7 -89 16 -92 20 -6 7
115 -1 159 -11 14 -3 6 4 -18 16 -35 17 -62 20 -149 20 -106 -1 -143 8 -143
34 0 24 17 26 79 10 64 -16 138 -20 159 -7 7 5 -9 9 -40 10 -56 1 -178 32
-178 44 0 5 21 8 48 8 34 0 43 3 32 10 -8 5 -44 10 -80 10 l-65 0 25 20 c14
11 22 20 19 20 -3 0 -8 -2 -10 -4z m-79 -56 c-44 -24 -78 -27 -60 -6 11 15 36
22 75 24 14 1 10 -5 -15 -18z m-460 -40 c0 -5 -7 -10 -16 -10 -8 0 -12 5 -9
10 3 6 10 10 16 10 5 0 9 -4 9 -10z m290 -19 c0 -13 -27 -21 -46 -14 -13 5
-13 7 -2 14 17 11 48 11 48 0z m338 -236 c111 -53 121 -70 25 -39 -17 5 -17 5
1 -10 32 -26 12 -27 -40 -2 -27 13 -75 31 -107 40 -65 19 -205 33 -172 17 16
-7 9 -10 -30 -9 -39 0 -45 2 -25 8 23 7 23 8 -9 9 -19 1 -31 4 -27 8 3 4 48 6
99 5 50 -1 99 3 107 8 32 21 87 10 178 -35z m-398 -7 c-13 -5 -33 -7 -45 -5
-19 3 -18 4 5 14 13 5 33 8 44 5 18 -5 18 -6 -4 -14z m30 -29 c-84 -14 -101
-19 -95 -28 2 -5 42 -9 87 -10 46 -1 99 -5 118 -10 24 -6 0 -7 -77 -5 -62 1
-122 5 -133 9 -24 8 -26 23 -4 32 9 3 11 8 6 12 -6 3 26 7 71 8 81 1 81 1 27
-8z m570 -82 c69 -51 167 -150 209 -211 l33 -47 -64 47 c-34 26 -84 66 -109
88 -42 38 -70 61 -139 116 -19 14 -21 19 -9 20 9 0 28 -9 42 -20 14 -11 30
-20 37 -20 22 0 -3 22 -45 41 -24 10 -45 26 -49 34 -7 20 18 7 94 -48z m-393
17 c-3 -3 -12 -4 -19 -1 -8 3 -5 6 6 6 11 1 17 -2 13 -5z m-12 -20 c70 -12
107 -23 122 -37 13 -11 21 -22 19 -24 -2 -2 -43 7 -92 21 -53 16 -113 26 -151
26 -79 0 -243 -32 -306 -59 -52 -22 -67 -25 -67 -13 0 17 143 65 227 77 29 4
55 11 59 16 8 14 76 11 189 -7z m53 -55 c40 -11 82 -17 95 -14 26 7 187 -68
187 -86 0 -7 7 -21 17 -31 31 -34 -3 -18 -56 27 -49 42 -118 72 -144 62 -7 -3
17 -18 53 -35 36 -16 80 -41 98 -55 31 -24 32 -26 12 -32 -24 -8 -82 3 -75 14
2 5 -13 13 -35 20 -46 14 -61 31 -28 32 20 0 19 2 -7 11 -16 6 -33 15 -36 21
-13 19 -99 20 -159 2 -55 -17 -110 -15 -110 4 0 4 26 13 58 19 l57 11 -80 -4
c-55 -3 -107 -13 -161 -33 -85 -29 -114 -31 -93 -6 15 19 3 18 -67 -6 -45 -15
-54 -16 -39 -4 11 8 51 24 90 36 38 12 65 23 59 25 -6 2 -43 -8 -83 -22 -85
-31 -119 -28 -40 3 112 45 276 74 364 65 28 -3 83 -14 123 -24z m-587 -115
c33 -15 59 -33 59 -40 0 -8 9 -14 21 -14 18 0 19 -2 5 -15 -11 -11 -32 -15
-76 -13 -34 1 -64 6 -66 10 -3 5 -10 6 -15 3 -13 -9 -11 19 3 33 8 8 8 12 1
12 -6 0 -18 -16 -27 -35 -13 -27 -15 -49 -10 -101 6 -55 5 -66 -7 -62 -8 2
-15 17 -17 31 -2 15 -8 27 -13 27 -23 0 3 142 32 171 25 25 40 24 110 -7z
m547 -34 c36 0 -6 -18 -58 -25 l-55 -7 20 22 c15 16 27 20 49 16 15 -3 36 -6
44 -6z m-231 -38 c-10 -10 -14 -21 -11 -25 9 -9 -27 -24 -76 -32 -27 -5 -54
-17 -67 -31 -16 -17 -33 -24 -60 -24 l-38 1 40 34 c22 19 59 44 83 56 23 11
40 25 36 30 -3 5 20 9 52 9 55 0 56 -1 41 -18z m318 -23 c35 -16 44 -23 34
-30 -8 -5 -22 -9 -31 -9 -28 0 -21 -15 17 -36 41 -22 46 -39 9 -30 -23 6 -24
5 -14 -14 6 -11 31 -41 57 -67 l46 -48 -6 37 c-3 23 -1 40 5 44 13 8 49 -36
43 -53 -2 -7 9 -14 26 -17 16 -3 42 -8 58 -11 27 -6 96 -65 74 -65 -5 0 -18 9
-28 20 -21 24 -47 27 -39 5 8 -19 -15 -19 -40 0 -52 40 -47 -2 6 -53 49 -48
45 -66 -6 -27 -47 36 -46 19 3 -43 22 -27 43 -67 48 -88 l8 -39 5 45 6 45 19
-40 c10 -22 21 -65 25 -95 l7 -55 2 68 c0 37 5 67 10 67 13 0 20 -86 10 -128
-5 -20 -6 -44 -3 -53 5 -18 -87 -110 -93 -93 -2 6 -26 9 -58 6 -63 -5 -76 12
-17 21 55 9 70 25 87 90 24 94 15 107 -14 20 -15 -45 -18 -48 -76 -65 -68 -20
-99 -23 -90 -8 4 6 -10 10 -36 10 -36 0 -40 2 -29 15 16 19 5 34 -12 17 -27
-27 -37 -13 -31 46 2 31 6 71 7 88 2 38 37 96 44 74 3 -8 11 -22 18 -31 14
-16 12 -28 -31 -144 -5 -12 4 -7 23 15 59 67 64 122 21 226 -13 30 -19 57 -15
61 15 14 73 -66 89 -122 14 -50 14 -61 1 -105 -8 -27 -26 -62 -40 -79 l-25
-30 28 -3 c58 -7 101 45 110 134 4 39 1 55 -14 76 -11 15 -36 59 -57 97 -34
65 -168 226 -179 215 -3 -3 13 -36 34 -73 42 -74 45 -82 27 -71 -8 5 -9 -2 -5
-24 13 -65 -10 -116 -59 -128 -28 -7 -28 -6 -13 12 31 37 34 47 8 31 -13 -8
-44 -18 -68 -21 -42 -6 -43 -6 -36 16 15 49 17 68 11 92 -9 38 -51 82 -101
105 -31 15 -45 27 -45 41 0 11 2 20 4 20 12 0 59 -31 71 -46 7 -11 17 -16 21
-12 4 5 -1 17 -11 28 -15 17 -16 20 -3 20 21 0 106 -93 114 -125 3 -14 4 -43
1 -63 -5 -31 -4 -34 5 -17 7 11 18 26 25 33 41 42 -7 141 -97 196 -33 21 -58
42 -55 47 9 14 61 11 100 -5 39 -17 39 -17 26 17 -7 16 -23 29 -48 37 -56 18
-60 28 -17 35 22 4 44 8 49 10 25 8 56 3 100 -16z m444 -11 c29 -22 42 -23 35
-3 -9 22 1 19 61 -17 51 -30 60 -41 92 -116 13 -32 13 -33 -7 -22 -12 6 -26 9
-33 7 -7 -2 -19 -1 -28 4 -13 7 -16 1 -17 -33 -1 -23 -7 -45 -14 -49 -6 -4 0
-7 15 -8 15 -1 39 -1 54 -2 15 0 33 7 40 17 17 23 19 19 37 -50 50 -193 41
-393 -26 -575 -19 -51 -22 -53 -50 -47 -25 5 -36 0 -64 -28 -19 -19 -34 -43
-34 -55 0 -11 -9 -35 -20 -53 -11 -18 -20 -49 -20 -70 0 -31 -5 -38 -30 -50
-16 -7 -30 -18 -30 -24 0 -13 -47 -58 -78 -74 -13 -6 -21 -14 -19 -17 3 -2 18
3 34 13 27 17 28 17 11 -1 -10 -11 -28 -20 -40 -20 -13 -1 -55 -11 -93 -23
-39 -12 -103 -26 -144 -32 -98 -14 -123 -20 -141 -36 -19 -16 -150 -31 -150
-17 0 6 -48 15 -107 22 -60 7 -132 18 -160 25 -44 11 -53 11 -53 0 0 -21 49
-40 183 -72 15 -4 28 -10 27 -14 -1 -23 1 -27 18 -31 24 -6 -107 2 -143 9 -66
12 -193 57 -244 86 -92 53 -326 277 -337 325 -4 15 -15 45 -26 66 -10 20 -16
37 -13 37 4 0 -2 14 -12 30 -9 17 -21 30 -25 30 -4 0 -11 19 -15 42 -5 32 -8
37 -13 23 -5 -14 -14 5 -30 65 -20 71 -24 109 -24 235 -1 175 14 261 44 261
16 0 18 -5 13 -26 -3 -14 -9 -29 -13 -35 -10 -13 -33 -165 -27 -172 3 -3 9 17
13 44 6 45 42 138 50 130 2 -2 -3 -38 -11 -81 -18 -91 -19 -146 -5 -146 6 0
15 10 21 23 9 21 9 21 4 -3 -2 -14 -5 -31 -5 -39 0 -7 -6 -11 -14 -8 -19 7
-10 -131 10 -154 8 -8 14 -31 14 -50 0 -46 26 -128 49 -153 10 -12 33 -48 51
-80 19 -33 65 -93 103 -133 68 -71 92 -89 81 -58 -8 19 16 20 42 0 10 -8 29
-15 40 -15 12 0 43 -11 70 -25 27 -14 40 -20 30 -13 -34 23 -131 104 -145 121
-12 15 -10 17 14 17 28 0 28 0 9 22 -12 13 -13 18 -4 13 13 -8 13 -7 1 8 -12
15 -10 20 14 38 21 17 24 24 13 31 -9 7 -8 8 5 4 10 -3 26 -2 35 3 9 4 30 11
46 15 23 6 27 4 23 -8 -4 -11 0 -16 12 -16 22 0 36 -16 45 -52 4 -17 11 -25
20 -22 9 4 15 -7 20 -35 8 -50 54 -88 129 -106 28 -7 59 -16 68 -20 13 -5 17
0 17 19 0 17 -7 26 -24 30 -13 4 -24 11 -24 16 0 14 13 13 28 -2 9 -9 12 -9
12 0 0 7 13 12 30 12 16 0 44 9 62 20 39 24 77 26 104 5 25 -19 38 -19 30 0
-4 10 1 15 14 15 11 0 20 -3 20 -7 0 -5 18 -8 41 -9 37 0 39 1 22 13 -10 8
-18 18 -18 23 0 14 -80 68 -106 72 -18 2 -25 10 -27 31 -4 33 1 33 57 2 24
-14 46 -23 49 -20 9 8 -29 32 -70 45 -21 6 -38 15 -38 19 0 13 34 24 38 12 2
-6 16 -8 33 -4 22 4 29 2 29 -11 0 -13 9 -15 50 -13 56 4 76 15 42 24 -13 3
-21 11 -19 17 6 16 154 10 182 -8 21 -14 22 -13 17 10 -10 51 -96 95 -158 80
-14 -4 -45 -25 -68 -46 -24 -22 -49 -40 -55 -40 -23 0 -6 35 24 49 17 7 44 26
60 42 39 37 83 46 123 25 35 -18 77 -21 95 -6 18 15 87 60 92 60 14 0 0 -25
-34 -63 l-39 -42 40 3 c27 3 43 0 49 -9 7 -11 13 -9 30 11 17 21 19 22 10 3
-6 -12 -11 -28 -11 -35 1 -17 60 52 60 70 0 7 9 31 20 53 26 49 41 89 35 89
-3 0 -14 -18 -25 -40 -12 -23 -25 -38 -30 -35 -5 3 -14 -13 -21 -35 -7 -22
-16 -40 -22 -40 -5 0 -6 8 -2 18 4 9 11 30 16 46 7 23 6 27 -3 18 -18 -18 -28
-15 -28 8 0 13 5 18 15 14 9 -4 15 0 15 10 0 9 7 16 15 16 35 0 49 94 25 166
-15 43 -32 44 -29 2 4 -58 -1 -123 -11 -138 -9 -13 -11 -13 -20 0 -5 8 -8 21
-5 28 3 8 8 32 12 54 4 30 3 39 -5 34 -9 -5 -12 6 -12 37 0 31 -8 55 -25 81
-19 28 -21 34 -7 27 9 -5 28 -21 41 -34 13 -14 29 -23 37 -20 8 3 14 0 14 -6
0 -6 6 -11 14 -11 8 0 17 -8 19 -17 3 -11 6 -6 7 12 2 30 2 30 10 5 8 -24 8
-23 9 7 2 56 -28 123 -90 200 -75 95 -80 118 -13 67 40 -31 42 -27 11 24 -30
48 -49 93 -43 99 3 3 17 -8 32 -23 l26 -29 -17 30 c-10 17 -23 35 -30 40 -7 6
-15 24 -17 40 -2 25 0 29 16 27 10 -2 15 1 11 7 -9 15 24 2 54 -21z m-121 -20
c-3 -18 -2 -44 2 -58 7 -28 -8 -100 -21 -100 -5 0 -9 -7 -9 -15 0 -23 -16 -18
-43 14 -22 27 -26 28 -40 13 -15 -14 -18 -14 -37 3 -36 32 -26 59 41 109 34
25 55 46 47 46 -24 0 15 20 41 20 21 0 23 -4 19 -32z m-1370 -28 c-14 -22 -24
-19 -15 5 4 8 11 15 17 15 6 0 6 -7 -2 -20z m677 -6 c-11 -8 -19 -19 -18 -24
2 -5 -14 -12 -35 -16 -59 -10 -73 -23 -27 -24 22 0 49 -7 59 -15 18 -14 15
-15 -40 -15 -37 -1 -74 -8 -99 -20 -74 -36 -87 -17 -15 20 23 12 37 25 35 33
-8 20 93 77 135 77 24 -1 25 -1 5 -16z m-530 -52 c-4 -15 -8 -42 -10 -60 -2
-33 -2 -33 21 13 24 50 54 88 39 50 -21 -57 -21 -58 14 -41 36 19 39 10 11
-36 -22 -36 -26 -53 -10 -43 12 8 5 -50 -16 -136 -16 -65 -18 -187 -4 -209 8
-12 10 -10 10 10 1 23 2 24 14 8 7 -10 18 -18 25 -18 13 0 31 -41 31 -72 0
-17 -2 -18 -15 -8 -23 19 -20 -5 6 -46 11 -19 18 -34 15 -34 -3 0 8 -19 23
-42 21 -31 26 -45 18 -51 -7 -5 0 -6 16 -3 15 4 27 3 27 -2 0 -5 11 -14 25
-20 35 -16 31 -29 -7 -25 -29 3 -30 2 -10 -7 26 -11 29 -37 5 -43 -13 -3 -10
-5 7 -6 19 -2 11 -8 -39 -31 -59 -28 -89 -31 -76 -9 4 5 2 9 -3 9 -11 0 -55
80 -87 158 -13 31 -24 48 -25 36 0 -21 45 -116 90 -189 14 -22 24 -43 22 -47
-3 -12 16 -10 23 2 3 6 11 10 18 10 6 0 0 -12 -15 -27 -23 -22 -29 -24 -43
-13 -9 7 -15 20 -14 29 2 15 -19 70 -31 81 -29 26 -98 221 -100 285 -1 26 -20
-24 -20 -53 0 -20 -4 -31 -10 -27 -12 7 -14 82 -2 89 4 2 6 24 3 48 -4 41 -5
41 -11 13 -6 -26 -8 -28 -15 -11 -5 11 -3 37 3 61 8 30 8 53 1 79 -7 26 -7 47
1 72 7 19 13 45 15 57 2 12 10 41 18 65 28 74 3 44 -28 -35 -34 -87 -59 -110
-44 -41 6 24 30 75 55 113 24 39 52 87 62 107 18 40 28 34 17 -10z m-155 -82
c-30 -65 -38 -57 -9 9 12 29 24 49 27 46 3 -3 -5 -28 -18 -55z m-144 -9 c-9
-16 -16 -39 -16 -51 0 -11 -4 -20 -10 -20 -12 0 -2 56 18 95 8 17 17 25 19 18
2 -6 -3 -25 -11 -42z m752 4 c5 -24 -15 -34 -53 -28 -31 5 -103 -22 -91 -34 3
-3 -1 -15 -9 -27 -31 -44 -14 -49 28 -8 23 23 50 42 59 42 11 0 1 -15 -29 -43
-34 -33 -44 -49 -41 -67 l3 -25 15 27 c17 30 76 78 97 78 9 0 2 -15 -18 -40
-31 -38 -32 -47 -14 -95 7 -18 5 -17 -18 4 -20 18 -27 20 -27 10 0 -8 5 -20
12 -27 23 -23 1 -21 -32 3 -19 14 -39 25 -46 25 -17 0 -34 24 -49 67 l-13 38
-7 -38 c-5 -27 -3 -44 9 -62 9 -13 16 -31 16 -40 0 -9 7 -18 15 -21 22 -9 18
-34 -5 -34 -11 0 -20 -4 -20 -10 0 -5 5 -10 11 -10 14 0 89 -61 89 -73 0 -6
-8 -3 -18 6 -10 10 -28 17 -39 17 -14 0 -29 13 -43 38 -18 30 -21 42 -12 65
10 26 0 38 -14 16 -13 -22 -23 16 -14 55 5 21 5 35 1 30 -5 -5 -14 -38 -20
-74 -16 -85 -20 -100 -32 -100 -12 0 -12 52 1 84 9 25 -2 37 -15 16 -3 -5 -10
-10 -15 -10 -10 0 18 87 31 96 5 3 9 13 9 23 0 10 12 26 28 36 15 9 40 31 55
49 27 29 29 25 10 -21 -4 -10 14 0 40 22 25 21 56 39 69 41 13 1 34 7 48 13
32 12 44 9 48 -14z m246 -56 c17 -16 27 -31 24 -34 -8 -8 -121 47 -125 62 -8
23 71 2 101 -28z m-219 -18 c-3 -6 -11 -11 -17 -11 -6 0 -6 6 2 15 14 17 26
13 15 -4z m118 -82 c4 -15 1 -19 -16 -16 -12 1 -28 6 -36 11 -9 6 -12 5 -9 -5
2 -8 17 -20 31 -27 15 -7 27 -19 27 -27 0 -19 -20 -64 -43 -97 -27 -41 -5 -34
49 16 38 34 46 46 38 57 -17 21 -23 55 -13 70 7 11 13 9 29 -11 13 -17 20 -20
20 -10 0 9 -14 32 -31 53 l-30 37 31 0 c18 0 45 -9 61 -21 23 -16 29 -28 29
-57 0 -42 -32 -82 -66 -82 -14 0 -28 -9 -35 -21 -10 -20 -9 -21 10 -16 18 4
19 2 11 -13 -6 -10 -10 -29 -10 -42 0 -21 2 -20 20 10 22 36 26 38 46 17 26
-25 56 -17 95 25 20 22 42 40 48 40 7 0 11 -23 11 -61 0 -54 -3 -64 -29 -90
-17 -17 -40 -29 -55 -29 -14 0 -26 -5 -26 -11 0 -8 15 -9 45 -5 53 8 58 1 13
-19 l-33 -13 35 -6 c19 -3 46 -4 59 -3 13 1 26 -4 28 -10 3 -9 -5 -13 -24 -13
-16 0 -39 -7 -51 -16 -20 -14 -28 -14 -55 -3 -18 7 -41 21 -53 31 -25 22 -53
26 -35 4 6 -8 10 -20 9 -27 -2 -9 7 -14 27 -14 17 -1 38 -5 48 -9 18 -9 89 -3
136 10 18 5 23 4 19 -7 -2 -8 -15 -15 -29 -17 -13 -2 -35 -12 -49 -23 l-25
-21 28 6 c45 10 30 -11 -18 -25 -30 -9 -40 -16 -31 -21 8 -4 11 -18 8 -33 -5
-28 -12 -31 -30 -13 -10 10 -15 10 -22 -2 -5 -8 -15 -15 -23 -15 -20 0 -69
-43 -65 -56 3 -8 9 -6 20 5 9 9 21 16 27 16 20 0 11 -16 -20 -34 -27 -16 -33
-16 -40 -5 -5 10 -20 13 -48 11 -24 -2 -38 -8 -35 -14 4 -7 -6 -8 -27 -3 -53
11 -72 24 -66 46 3 10 1 19 -4 19 -17 0 -9 37 14 58 39 37 115 57 103 27 -3
-9 0 -15 9 -15 16 0 31 43 20 60 -5 8 -13 7 -29 -3 -35 -23 -158 -32 -193 -14
-54 29 -56 37 -23 118 17 40 41 93 55 116 23 42 23 46 8 77 -13 28 -14 40 -4
67 10 28 9 34 -5 42 -14 8 -8 18 41 63 l58 53 32 -25 c18 -14 35 -34 38 -45z
m681 9 c24 -34 19 -41 -14 -21 -31 18 -40 43 -16 43 8 0 22 -10 30 -22z m-949
-118 c3 -11 13 -20 21 -20 19 0 18 -19 -2 -27 -21 -8 -59 30 -51 51 9 22 24
20 32 -4z m452 14 c-3 -3 -12 -4 -19 -1 -8 3 -5 6 6 6 11 1 17 -2 13 -5z m1
-53 c-4 -20 -44 -27 -64 -11 -24 21 -16 29 27 28 31 0 39 -4 37 -17z m-431
-21 c20 0 33 -5 33 -12 0 -9 4 -8 10 2 20 30 11 -27 -14 -87 -56 -138 -64
-164 -58 -185 9 -37 33 -68 53 -68 10 0 22 -6 26 -12 9 -15 43 -43 43 -36 0
10 -58 68 -67 68 -6 0 -13 7 -17 15 -3 8 -1 15 5 15 13 0 71 -39 81 -55 8 -11
3 -89 -7 -105 -10 -16 -81 -12 -95 5 -10 13 -9 15 8 15 12 0 24 -4 27 -10 8
-12 25 -13 25 -2 0 10 -50 37 -62 34 -5 -1 -8 4 -8 12 0 8 -7 16 -15 20 -8 3
-15 10 -15 16 0 6 5 8 10 5 6 -3 10 -1 10 5 0 7 -7 10 -15 6 -21 -8 -48 33
-33 51 11 14 -7 47 -22 38 -9 -6 -90 68 -90 82 0 6 11 8 25 5 l26 -4 -26 67
c-16 43 -20 63 -11 56 8 -6 19 -25 26 -41 7 -17 16 -30 21 -30 11 0 11 -3 -6
45 -8 22 -14 48 -15 58 0 15 5 13 23 -10 13 -15 27 -37 32 -48 11 -28 14 -89
3 -96 -4 -3 4 -16 18 -30 l26 -24 -3 55 c-4 52 -3 54 21 55 23 0 25 3 22 38
-2 24 1 37 9 37 17 0 -18 38 -42 45 -11 4 -19 11 -19 18 0 8 3 8 12 -1 7 -7
27 -12 45 -12z m1420 -212 c-3 -7 -5 -2 -5 12 0 14 2 19 5 13 2 -7 2 -19 0
-25z m-1160 -264 c-3 -3 -12 -4 -19 -1 -8 3 -5 6 6 6 11 1 17 -2 13 -5z m137
-31 c-6 -2 -32 -24 -57 -48 -25 -25 -55 -46 -68 -46 -93 -5 -126 -4 -138 5 -7
5 -20 11 -30 13 -18 2 -61 48 -61 65 0 5 7 8 15 4 8 -3 15 -1 15 5 0 5 11 6
28 2 15 -4 78 -7 139 -7 94 -1 116 2 130 17 12 12 20 14 28 6 7 -8 7 -13 -1
-16z m556 -187 c0 -2 -8 -10 -17 -17 -16 -13 -17 -12 -4 4 13 16 21 21 21 13z
m-365 -195 c-12 -11 -103 -26 -93 -16 7 7 61 22 88 24 8 1 10 -2 5 -8z
m-10345 -3607 c0 -2 -7 -4 -15 -4 -8 0 -15 4 -15 10 0 5 7 7 15 4 8 -4 15 -8
15 -10z m50 -103 c0 -5 -7 -12 -16 -15 -14 -5 -15 -4 -4 9 14 17 20 19 20 6z"/>
<path d="M11408 8833 c7 -3 16 -2 19 1 4 3 -2 6 -13 5 -11 0 -14 -3 -6 -6z"/>
<path d="M12275 8570 c-3 -5 -1 -10 4 -10 6 0 11 5 11 10 0 6 -2 10 -4 10 -3
0 -8 -4 -11 -10z"/>
<path d="M12300 8550 c0 -5 5 -10 11 -10 5 0 7 5 4 10 -3 6 -8 10 -11 10 -2 0
-4 -4 -4 -10z"/>
<path d="M12320 8515 c0 -8 7 -15 15 -15 8 0 15 7 15 15 0 8 -7 15 -15 15 -8
0 -15 -7 -15 -15z"/>
<path d="M12281 8254 c0 -11 3 -14 6 -6 3 7 2 16 -1 19 -3 4 -6 -2 -5 -13z"/>
<path d="M12371 8124 c0 -11 3 -14 6 -6 3 7 2 16 -1 19 -3 4 -6 -2 -5 -13z"/>
<path d="M10601 8004 c0 -11 3 -14 6 -6 3 7 2 16 -1 19 -3 4 -6 -2 -5 -13z"/>
<path d="M12322 7960 c-6 -19 -14 -53 -18 -75 -7 -39 -44 -114 -91 -184 -21
-31 -22 -36 -8 -52 15 -16 14 -19 -17 -48 -18 -18 -59 -48 -91 -68 -31 -20
-56 -38 -53 -40 10 -10 153 89 183 127 14 18 17 34 4 26 -5 -3 -13 0 -18 7 -6
8 5 36 35 87 43 73 49 65 10 -15 l-19 -40 20 25 c25 31 85 175 88 212 2 15 -1
37 -6 50 -8 21 -9 20 -19 -12z"/>
<path d="M10622 7935 c0 -16 2 -22 5 -12 2 9 2 23 0 30 -3 6 -5 -1 -5 -18z"/>
<path d="M10836 7485 c9 -14 26 -31 38 -37 14 -7 10 1 -13 26 -41 42 -48 45
-25 11z"/>
<path d="M12000 7420 c-8 -5 -10 -10 -5 -10 6 0 17 5 25 10 8 5 11 10 5 10 -5
0 -17 -5 -25 -10z"/>
<path d="M11996 7394 c-21 -7 -42 -12 -45 -9 -9 5 -99 -21 -115 -34 -6 -5 -30
-12 -53 -16 -24 -4 -46 -12 -50 -17 -4 -8 2 -9 18 -4 13 3 47 11 74 16 72 15
146 37 196 60 50 22 33 26 -25 4z"/>
<path d="M10791 8144 c0 -11 3 -14 6 -6 3 7 2 16 -1 19 -3 4 -6 -2 -5 -13z"/>
<path d="M10995 7740 c-13 -6 -15 -9 -5 -9 8 0 22 4 30 9 18 12 2 12 -25 0z"/>
<path d="M11657 8084 c-15 -13 -39 -24 -53 -24 -31 0 -94 -49 -94 -72 0 -14 4
-13 26 7 24 23 44 30 68 26 21 -4 47 13 67 45 27 44 22 49 -14 18z"/>
<path d="M11434 8076 c-20 -11 -20 -12 -3 -41 10 -16 21 -50 25 -75 7 -58 14
-80 22 -80 11 0 12 59 2 65 -5 3 -7 31 -4 63 7 66 -6 87 -42 68z"/>
<path d="M11553 7853 c-31 -12 -8 -23 45 -22 56 1 57 1 27 14 -31 15 -51 17
-72 8z"/>
<path d="M11401 7766 c-10 -12 -8 -13 9 -9 25 7 37 23 17 23 -8 0 -20 -6 -26
-14z"/>
<path d="M11515 7760 c-3 -5 -1 -10 4 -10 6 0 11 5 11 10 0 6 -2 10 -4 10 -3
0 -8 -4 -11 -10z"/>
<path d="M11547 7731 c-3 -14 -11 -18 -26 -14 -14 3 -23 0 -27 -11 -3 -9 -17
-16 -30 -16 -13 0 -24 -4 -24 -10 0 -19 33 -11 90 22 8 5 23 11 33 14 20 7 23
34 3 34 -7 0 -16 -9 -19 -19z"/>
<path d="M11359 7723 c-13 -16 -12 -17 4 -4 16 13 21 21 13 21 -2 0 -10 -8
-17 -17z"/>
<path d="M11470 7730 c0 -5 4 -10 9 -10 6 0 13 5 16 10 3 6 -1 10 -9 10 -9 0
-16 -4 -16 -10z"/>
<path d="M11420 7710 c0 -5 4 -10 9 -10 6 0 13 5 16 10 3 6 -1 10 -9 10 -9 0
-16 -4 -16 -10z"/>
<path d="M11400 7680 c0 -5 7 -10 16 -10 8 0 12 5 9 10 -3 6 -10 10 -16 10 -5
0 -9 -4 -9 -10z"/>
<path d="M11226 7721 c-4 -5 -2 -12 3 -15 5 -4 12 -2 15 3 4 5 2 12 -3 15 -5
4 -12 2 -15 -3z"/>
<path d="M11275 7690 c3 -5 8 -10 11 -10 2 0 4 5 4 10 0 6 -5 10 -11 10 -5 0
-7 -4 -4 -10z"/>
<path d="M11165 8940 c-3 -6 1 -7 9 -4 18 7 21 14 7 14 -6 0 -13 -4 -16 -10z"/>
<path d="M7850 5485 l0 -1335 175 0 175 0 0 544 0 544 478 5 c389 3 491 7 552
20 241 51 379 128 485 270 75 98 129 219 154 345 14 68 14 266 0 334 -59 290
-239 489 -506 559 -166 44 -262 49 -905 49 l-608 0 0 -1335z m1273 1015 c246
-26 397 -202 397 -464 0 -149 -39 -254 -124 -340 -57 -58 -117 -90 -220 -119
-65 -19 -107 -21 -523 -25 l-453 -4 0 481 0 481 418 0 c229 0 457 -5 505 -10z"/>
<path d="M10140 6665 l0 -155 440 0 440 0 0 -1180 0 -1180 175 0 175 0 0 1180
0 1180 440 0 440 0 0 155 0 155 -1055 0 -1055 0 0 -155z"/>
<path d="M1485 5711 c11 -5 31 -7 45 -5 22 4 23 3 5 -5 -12 -6 -15 -10 -6 -10
8 -1 12 -3 9 -6 -3 -3 -17 -1 -32 4 -14 6 -26 7 -26 2 0 -5 6 -11 14 -14 20
-8 7 -57 -18 -67 -11 -5 -16 -10 -11 -11 6 -1 -3 -5 -20 -9 -21 -5 -5 -8 57
-9 282 -4 675 -108 862 -230 l38 -25 -6 -96 c-8 -106 -46 -323 -77 -438 -11
-41 -18 -76 -16 -78 9 -10 134 288 175 416 19 60 72 262 72 274 0 3 -24 21
-54 40 -157 100 -423 199 -648 240 -134 25 -401 44 -363 27z"/>
<path d="M1304 5228 l-19 -23 23 19 c21 18 27 26 19 26 -2 0 -12 -10 -23 -22z"/>
<path d="M1343 5215 c0 -8 4 -12 9 -9 5 3 6 10 3 15 -9 13 -12 11 -12 -6z"/>
<path d="M1328 3887 c20 -6 40 -6 54 0 17 7 10 9 -33 9 -50 0 -52 -1 -21 -9z"/>
<path d="M5004 3756 c-21 -17 -28 -33 -28 -59 0 -49 24 -72 95 -93 64 -19 85
-35 76 -59 -14 -36 -97 -30 -114 8 -9 19 -17 23 -41 19 -24 -3 -29 -8 -24 -25
19 -80 152 -111 217 -51 18 17 25 33 25 61 0 57 -20 78 -100 102 -54 17 -70
26 -70 40 0 35 60 42 87 11 22 -26 73 -27 73 -2 -1 43 -49 72 -119 72 -38 0
-56 -6 -77 -24z"/>
<path d="M6699 3751 c-56 -56 -26 -120 69 -147 66 -19 85 -33 76 -57 -14 -38
-97 -33 -115 6 -8 18 -17 22 -40 19 -34 -5 -36 -16 -9 -59 52 -86 230 -50 230
46 0 44 -34 78 -98 97 -31 10 -64 24 -72 31 -13 13 -13 16 4 29 28 20 60 18
81 -6 22 -24 75 -27 75 -4 0 8 -13 29 -29 45 -26 25 -37 29 -86 29 -49 0 -60
-4 -86 -29z"/>
<path d="M8219 3751 c-56 -56 -26 -120 69 -147 66 -19 85 -33 76 -57 -15 -39
-97 -33 -116 9 -10 21 -16 24 -37 19 -34 -9 -33 -7 -20 -44 31 -87 202 -87
233 1 21 60 -16 108 -99 128 -67 16 -88 36 -60 56 10 8 29 14 41 14 22 0 54
-23 54 -39 0 -4 14 -6 30 -3 40 6 39 32 -1 66 -25 21 -41 26 -86 26 -47 0 -59
-4 -84 -29z"/>
<path d="M8768 3769 c-11 -6 -18 -22 -18 -40 0 -23 -5 -32 -21 -36 -24 -7 -23
-48 1 -48 12 0 16 -18 18 -87 l3 -88 29 0 30 0 0 89 c0 78 2 89 17 87 12 0 19
7 21 22 3 17 -2 22 -18 22 -16 0 -21 5 -18 23 2 16 9 21 26 19 18 -3 22 2 22
22 0 23 -4 26 -37 26 -21 0 -46 -5 -55 -11z"/>
<path d="M9380 3750 c0 -29 2 -30 45 -30 l45 0 0 -125 0 -125 30 0 30 0 0 125
0 125 45 0 c43 0 45 1 45 30 l0 30 -120 0 -120 0 0 -30z"/>
<path d="M9670 3625 l0 -155 30 0 30 0 0 73 c0 83 13 111 51 105 23 -3 24 -6
27 -90 l3 -88 29 0 30 0 0 94 c0 73 -4 98 -16 110 -24 25 -60 29 -94 13 l-30
-15 0 54 c0 53 0 54 -30 54 l-30 0 0 -155z"/>
<path d="M9940 3750 c0 -27 3 -30 30 -30 27 0 30 3 30 30 0 27 -3 30 -30 30
-27 0 -30 -3 -30 -30z"/>
<path d="M10450 3750 c0 -27 3 -30 30 -30 27 0 30 3 30 30 0 27 -3 30 -30 30
-27 0 -30 -3 -30 -30z"/>
<path d="M10979 3751 c-57 -57 -26 -120 76 -149 49 -15 61 -22 63 -41 4 -29
-12 -41 -56 -41 -26 0 -36 6 -50 30 -14 24 -22 28 -42 23 -14 -3 -27 -7 -29
-9 -9 -8 24 -67 43 -79 80 -49 206 -4 206 74 0 44 -34 78 -98 97 -72 22 -90
37 -72 58 18 23 67 20 82 -4 9 -13 24 -20 45 -20 42 0 43 21 4 61 -26 25 -37
29 -86 29 -49 0 -60 -4 -86 -29z"/>
<path d="M11250 3625 l0 -155 30 0 c28 0 29 1 32 57 l3 57 55 3 c74 3 104 26
108 83 6 85 -29 110 -154 110 l-74 0 0 -155z m164 73 c19 -30 -4 -53 -58 -56
l-46 -3 0 41 0 41 46 -3 c31 -2 51 -9 58 -20z"/>
<path d="M11524 3765 c-12 -30 4 -45 46 -45 l40 0 0 -125 0 -125 35 0 35 0 0
124 0 125 43 3 c37 3 42 6 42 28 l0 25 -118 3 c-98 2 -118 0 -123 -13z"/>
<path d="M11970 3750 c0 -27 3 -30 30 -30 27 0 30 3 30 30 0 27 -3 30 -30 30
-27 0 -30 -3 -30 -30z"/>
<path d="M5303 3750 c-20 -12 -33 -28 -33 -40 0 -11 -4 -20 -10 -20 -5 0 -10
-9 -10 -19 0 -11 5 -23 10 -26 6 -3 10 -26 10 -49 0 -99 26 -140 83 -129 20 4
27 11 27 30 0 17 -5 23 -17 21 -16 -3 -18 6 -18 62 0 51 3 65 15 65 8 0 16 10
18 23 3 16 -2 22 -17 22 -16 0 -20 8 -23 40 l-3 40 -32 -20z"/>
<path d="M7818 3754 c-19 -10 -28 -23 -28 -39 0 -16 -6 -25 -15 -25 -19 0 -20
-36 0 -47 10 -6 15 -30 17 -83 3 -66 6 -76 26 -86 36 -18 72 -6 72 23 0 17 -5
23 -17 21 -15 -3 -18 6 -21 58 -3 55 -1 62 18 67 27 7 28 47 1 47 -16 0 -20 8
-23 39 l-3 39 -27 -14z"/>
<path d="M5496 3684 c-9 -8 -16 -11 -16 -5 0 6 -14 11 -30 11 l-31 0 3 -107 3
-108 28 -3 c27 -3 27 -3 28 55 1 85 10 107 43 113 31 5 52 40 32 52 -18 12
-44 9 -60 -8z"/>
<path d="M5653 3685 c-84 -36 -81 -192 4 -211 15 -3 34 -7 41 -10 19 -6 74 20
95 44 26 29 33 92 14 129 -16 31 -70 63 -104 63 -10 -1 -32 -7 -50 -15z m80
-47 c28 -22 32 -69 7 -101 -12 -15 -28 -27 -36 -27 -24 0 -54 39 -54 70 0 31
30 70 53 70 7 0 21 -6 30 -12z"/>
<path d="M5958 3686 c-16 -8 -28 -11 -28 -5 0 5 -13 9 -30 9 l-30 0 0 -110 0
-110 30 0 30 0 0 68 c0 74 17 112 50 112 29 0 40 -31 40 -109 l0 -71 31 0 31
0 -4 95 c-3 66 -8 100 -19 110 -22 22 -70 28 -101 11z"/>
<path d="M6172 3675 c-36 -30 -49 -88 -32 -140 20 -61 79 -83 128 -49 23 16
23 16 20 -17 -3 -31 -7 -34 -37 -37 -19 -2 -37 1 -40 6 -3 5 -21 12 -38 15
-28 5 -33 3 -33 -12 0 -46 97 -77 161 -51 42 18 49 43 49 181 l0 119 -30 0
c-16 0 -30 -5 -30 -11 0 -5 -10 -3 -22 5 -32 23 -62 20 -96 -9z m102 -41 c35
-34 11 -114 -33 -114 -27 0 -45 27 -45 65 0 58 43 85 78 49z"/>
<path d="M7048 3686 c-16 -8 -28 -11 -28 -5 0 5 -11 9 -25 9 l-25 0 0 -110 0
-110 30 0 30 0 0 78 c0 80 9 102 41 102 23 0 29 -20 29 -106 l0 -74 30 0 30 0
0 73 c0 80 14 112 46 105 17 -3 19 -13 22 -91 l3 -87 29 0 30 0 0 91 c0 50 -4
99 -10 109 -14 27 -63 34 -100 15 -27 -14 -33 -14 -52 0 -28 19 -45 19 -80 1z"/>
<path d="M7394 3686 c-25 -11 -44 -33 -44 -51 0 -11 52 -10 62 2 15 19 62 13
66 -9 2 -13 -9 -19 -52 -28 -30 -6 -60 -18 -67 -26 -15 -18 -14 -70 1 -89 17
-20 62 -25 97 -10 18 8 33 10 33 4 0 -5 13 -9 28 -9 l29 0 -4 83 c-6 115 -8
123 -44 136 -41 14 -67 13 -105 -3z m86 -134 c0 -24 -19 -42 -46 -42 -37 0
-40 39 -4 53 30 11 50 7 50 -11z"/>
<path d="M7677 3683 c-11 -11 -17 -13 -17 -5 0 7 -13 12 -30 12 l-30 0 0 -110
0 -110 35 0 34 0 3 83 3 82 31 3 c23 2 34 9 38 25 9 37 -36 50 -67 20z"/>
<path d="M8529 3689 c-14 -5 -31 -20 -37 -33 -10 -22 -8 -24 16 -29 17 -3 30
0 37 10 14 19 59 13 63 -9 2 -11 -6 -18 -30 -23 -85 -16 -114 -46 -96 -97 14
-39 56 -53 102 -34 20 8 36 11 36 5 0 -5 13 -9 28 -9 l29 0 -4 83 c-6 115 -8
123 -44 136 -38 13 -64 13 -100 0z m81 -138 c0 -42 -62 -56 -68 -14 -2 14 3
23 15 26 39 10 53 7 53 -12z"/>
<path d="M8933 3685 c-17 -7 -36 -22 -42 -34 -17 -30 -13 -118 5 -146 33 -51
137 -50 171 2 14 21 13 23 -11 29 -18 4 -33 1 -45 -10 -21 -19 -42 -21 -59 -4
-28 28 -13 38 58 38 l70 0 0 30 c0 46 -25 86 -61 99 -40 14 -47 13 -86 -4z
m75 -47 c24 -24 13 -38 -28 -38 -26 0 -40 5 -40 13 0 18 21 37 40 37 9 0 21
-5 28 -12z"/>
<path d="M10110 3693 c-31 -12 -50 -37 -50 -64 0 -36 21 -56 73 -69 64 -17 69
-19 65 -33 -7 -18 -63 -21 -78 -3 -13 17 -55 22 -64 8 -10 -17 26 -52 63 -62
81 -21 160 35 133 94 -9 20 -25 30 -72 43 -35 9 -60 22 -60 30 0 15 56 18 65
3 8 -12 52 -13 59 -1 3 5 -2 19 -12 31 -18 22 -90 36 -122 23z"/>
<path d="M10604 3686 c-35 -15 -47 -46 -34 -82 5 -13 11 -24 12 -24 30 -3 113
-41 113 -51 0 -21 -63 -25 -71 -5 -8 20 -64 22 -64 3 0 -38 78 -69 140 -56 40
8 60 32 60 69 0 35 -23 55 -84 72 -60 16 -73 38 -22 38 19 0 38 -4 41 -10 8
-13 42 -13 51 1 11 18 -31 50 -72 55 -22 2 -53 -2 -70 -10z"/>
<path d="M11876 3693 c-3 -4 -24 -6 -46 -5 l-40 3 0 -111 0 -110 30 0 30 0 0
66 c0 77 12 104 45 104 28 0 45 37 24 51 -17 11 -33 11 -43 2z"/>
<path d="M12133 3690 c-18 -7 -43 -38 -43 -53 0 -13 51 -13 62 0 15 19 62 13
66 -9 2 -13 -7 -18 -44 -24 -51 -7 -94 -40 -94 -71 0 -53 60 -82 117 -58 18 8
33 10 33 4 0 -5 12 -9 28 -9 l27 0 -3 92 c-3 73 -8 97 -22 112 -20 21 -94 31
-127 16z m87 -138 c0 -38 -61 -60 -74 -26 -9 23 -8 24 17 34 36 14 57 12 57
-8z"/>
<path d="M1375 3681 c-3 -6 3 -14 12 -20 10 -5 15 -13 11 -17 -4 -4 -16 -1
-25 7 -17 12 -17 12 -2 -5 15 -17 19 -17 45 -2 16 9 22 16 14 15 -22 -3 -51
12 -44 22 3 5 3 9 0 9 -3 0 -7 -4 -11 -9z"/>
<path d="M9940 3580 l0 -110 30 0 30 0 0 110 0 110 -30 0 -30 0 0 -110z"/>
<path d="M10450 3580 l0 -110 30 0 30 0 0 110 0 110 -30 0 -30 0 0 -110z"/>
<path d="M11970 3580 l0 -110 30 0 30 0 0 110 0 110 -30 0 -30 0 0 -110z"/>
<path d="M1423 3553 c-15 -5 -17 -23 -4 -23 5 0 11 7 15 15 3 8 4 15 3 14 -1
0 -8 -3 -14 -6z"/>
<path d="M6410 3500 c0 -20 5 -30 15 -30 21 0 19 -27 -2 -39 -13 -7 -15 -13
-7 -21 20 -20 53 20 60 73 l7 47 -37 0 c-33 0 -36 -2 -36 -30z"/>
<path d="M7940 3500 c0 -16 5 -30 10 -30 15 0 12 -28 -5 -37 -8 -5 -11 -13 -6
-21 15 -25 50 19 57 71 l7 47 -32 0 c-28 0 -31 -3 -31 -30z"/>
<path d="M9140 3501 c0 -20 6 -31 17 -33 16 -3 16 -5 -3 -24 -15 -15 -19 -26
-13 -35 16 -25 59 35 59 82 0 37 -2 39 -30 39 -26 0 -30 -3 -30 -29z"/>
<path d="M12350 3500 c0 -27 3 -30 30 -30 27 0 30 3 30 30 0 27 -3 30 -30 30
-27 0 -30 -3 -30 -30z"/>
</g>
</svg>
